<?xml version="1.0" encoding="UTF-8" standalone="no"?>
<!-- Created with Inkscape (http://www.inkscape.org/) -->

<svg
   xmlns:dc="http://purl.org/dc/elements/1.1/"
   xmlns:cc="http://creativecommons.org/ns#"
   xmlns:rdf="http://www.w3.org/1999/02/22-rdf-syntax-ns#"
   xmlns:svg="http://www.w3.org/2000/svg"
   xmlns="http://www.w3.org/2000/svg"
   xmlns:sodipodi="http://sodipodi.sourceforge.net/DTD/sodipodi-0.dtd"
   xmlns:inkscape="http://www.inkscape.org/namespaces/inkscape"
   width="204.92754"
   height="204.92754"
   id="svg2"
   version="1.1"
   inkscape:version="0.48.5 r10040"
   sodipodi:docname="dragon.svg">
  <title
     id="title2997">emacs-china</title>
  <defs
     id="defs4" />
  <sodipodi:namedview
     id="base"
     pagecolor="#ffffff"
     bordercolor="#666666"
     borderopacity="1.0"
     inkscape:pageopacity="0"
     inkscape:pageshadow="2"
     inkscape:zoom="0.8"
     inkscape:cx="130.30256"
     inkscape:cy="127.33469"
     inkscape:document-units="px"
     inkscape:current-layer="layer2"
     showgrid="false"
     inkscape:window-width="721"
     inkscape:window-height="430"
     inkscape:window-x="505"
     inkscape:window-y="327"
     inkscape:window-maximized="0"
     fit-margin-top="0"
     fit-margin-left="0"
     fit-margin-right="0"
     fit-margin-bottom="0"
     inkscape:snap-global="true" />
  <metadata
     id="metadata7">
    <rdf:RDF>
      <cc:Work
         rdf:about="">
        <dc:format>image/svg+xml</dc:format>
        <dc:type
           rdf:resource="http://purl.org/dc/dcmitype/StillImage" />
        <dc:title>emacs-china</dc:title>
        <dc:creator>
          <cc:Agent>
            <dc:title>kuangdash</dc:title>
          </cc:Agent>
        </dc:creator>
        <dc:date>20150323</dc:date>
        <cc:license
           rdf:resource="http://creativecommons.org/licenses/by-nc-sa/3.0/" />
      </cc:Work>
      <cc:License
         rdf:about="http://creativecommons.org/licenses/by-nc-sa/3.0/">
        <cc:permits
           rdf:resource="http://creativecommons.org/ns#Reproduction" />
        <cc:permits
           rdf:resource="http://creativecommons.org/ns#Distribution" />
        <cc:requires
           rdf:resource="http://creativecommons.org/ns#Notice" />
        <cc:requires
           rdf:resource="http://creativecommons.org/ns#Attribution" />
        <cc:prohibits
           rdf:resource="http://creativecommons.org/ns#CommercialUse" />
        <cc:permits
           rdf:resource="http://creativecommons.org/ns#DerivativeWorks" />
        <cc:requires
           rdf:resource="http://creativecommons.org/ns#ShareAlike" />
      </cc:License>
    </rdf:RDF>
  </metadata>
  <g
     inkscape:groupmode="layer"
     id="layer2"
     inkscape:label="Layer2"
     style="display:inline"
     transform="translate(-288.49638,-315.42377)">
    <path
       style="fill:#ffff00;fill-opacity:1;stroke:#000000;stroke-width:0;stroke-miterlimit:4;stroke-opacity:1;stroke-dasharray:none"
       d=""
       id="path5236"
       inkscape:connector-curvature="0" />
    <path
       style="fill:#0909c6;fill-opacity:1;stroke:none"
       d=""
       id="path5794"
       inkscape:connector-curvature="0" />
    <path
       style="fill:#0909c6;fill-opacity:1;stroke:none"
       d=""
       id="path5804"
       inkscape:connector-curvature="0" />
    <g
       id="g6617"
       transform="translate(-98.75,-173.75)">
      <g
         transform="translate(-51.594203,-12.463768)"
         id="g6439">
        <path
           sodipodi:type="arc"
           style="fill:#0909c6;fill-opacity:1"
           id="path3912"
           sodipodi:cx="518.55072"
           sodipodi:cy="648.3042"
           sodipodi:rx="100.57971"
           sodipodi:ry="100.57971"
           d="m 619.13043,648.3042 c 0,55.54864 -45.03107,100.57971 -100.57971,100.57971 -55.54864,0 -100.57971,-45.03107 -100.57971,-100.57971 0,-55.54864 45.03107,-100.57971 100.57971,-100.57971 55.54864,0 100.57971,45.03107 100.57971,100.57971 z"
           transform="matrix(1.018732,0,0,1.018732,13.040137,-56.346926)" />
        <path
           style="fill:#f5f508;fill-opacity:1"
           d="m 546.90775,670.37769 c -11.68253,-0.47079 -28.58851,-2.50656 -44.05797,-5.30533 l -3.62319,-0.65551 8.84058,-0.19448 c 8.17653,-0.17987 16.4815,-0.63459 25.07246,-1.3728 6.02579,-0.51779 21.64009,-2.02226 24.05037,-2.3173 1.27118,-0.1556 2.42156,-0.28292 2.55639,-0.28292 0.13484,0 0.20348,-0.2887 0.15253,-0.64156 -0.0902,-0.6251 -0.53524,-0.69796 -17.339,-2.8389 l -17.24637,-2.19733 -4.63768,-1.84043 C 493.9498,642.12512 476.83254,630.1191 473.5393,619.66964 c -2.9278,-9.28988 4.98554,-18.70297 18.87826,-22.45611 11.1775,-3.01962 27.69002,-3.13172 44.48306,-0.302 2.22796,0.37542 4.15187,0.62014 4.27536,0.54382 0.70641,-0.43658 -0.0592,-1.3102 -2.88567,-3.29295 -17.08408,-11.98423 -29.42805,-22.94325 -34.23338,-30.39252 -5.28675,-8.19557 -2.18147,-13.00656 9.50479,-14.72569 3.64841,-0.53672 14.16794,-0.59382 19.86777,-0.10785 8.67031,0.73923 19.30565,2.20699 27.53623,3.80023 2.39131,0.4629 4.5545,0.84264 4.8071,0.84388 0.39501,0.002 0.42574,-0.24295 0.21962,-1.75013 -0.6383,-4.66736 -3.91777,-8.04508 -9.51947,-9.80464 -3.03039,-0.95189 -5.33308,-1.26469 -10.70123,-1.45366 -3.03379,-0.1068 -5.0883,-0.29637 -5.14739,-0.47497 -0.0576,-0.17402 1.61492,-0.57999 4.03457,-0.97933 2.27309,-0.37516 4.3107,-0.77659 4.52802,-0.89207 0.26749,-0.14215 -0.38792,-0.69162 -2.02899,-1.70102 -2.1581,-1.32743 -2.70125,-1.85397 -4.94966,-4.79828 -1.7033,-2.23049 -2.40059,-3.35518 -2.14176,-3.45451 0.21108,-0.081 2.77356,1.53733 5.69439,3.59628 3.64185,2.56721 5.55704,3.74355 6.09485,3.74355 1.90838,0 8.38225,2.31013 13.07486,4.66562 3.41514,1.71425 7.0712,3.16047 7.9897,3.16047 1.11671,0 1.52365,-0.48171 1.52365,-1.80358 0,-1.44459 -1.61619,-3.24839 -4.09368,-4.56888 -1.63254,-0.87013 -2.15787,-0.98258 -6.5014,-1.39158 l -4.72536,-0.44495 -1.25282,-1.10054 -1.25282,-1.10054 3.26087,-0.0124 c 3.06351,-0.0116 3.26086,-0.0475 3.26086,-0.59207 0,-0.45337 -0.19323,-0.57971 -0.88667,-0.57971 -0.48767,0 -0.81797,-0.11116 -0.734,-0.24702 0.12723,-0.20587 -4.86625,-4.95098 -7.979,-7.58213 l -0.8609,-0.72769 0.66507,-1.51185 c 0.36579,-0.83152 0.73874,-1.51493 0.82878,-1.51868 0.09,-0.004 0.37101,0.42789 0.62438,0.95922 0.76255,1.59909 3.25732,4.38029 4.91786,5.48249 0.85835,0.56974 2.92566,1.51056 4.59401,2.09072 3.39704,1.18128 5.09798,2.06981 8.68555,4.53711 4.14855,2.85312 7.2829,5.64191 8.17551,7.27419 2.29997,4.20581 7.65306,9.41062 14.18374,13.79084 2.60212,1.74528 3.43785,3.08825 3.43785,5.52447 0,3.36345 2.20033,7.48059 5.82555,10.90044 2.21549,2.08998 5.91593,4.93267 7.79799,5.99045 0.63749,0.35829 1.15834,0.85567 1.15745,1.1053 -0.005,1.38027 -0.69851,2.61895 -2.42414,4.32925 l -1.85727,1.84076 -2.32385,-0.68415 -2.32386,-0.68416 -2.12883,-2.69354 -2.12884,-2.69354 -3.47826,-1.61703 -3.47826,-1.61704 -5.07246,-0.28487 -5.07247,-0.28486 -5.94318,-3.29609 c -3.26875,-1.81285 -6.33397,-3.36536 -6.8116,-3.45 -1.54135,-0.27317 -11.10622,-1.02506 -18.54957,-1.45818 -17.91915,-1.0427 -24.49275,-0.058 -24.49275,3.66886 0,0.33851 0.842,1.47399 1.95652,2.63847 2.3195,2.42345 14.89035,13.78961 29.73534,26.88573 l 10.67736,9.41948 -7.63388,0.19424 c -23.949,0.60936 -40.94473,3.43671 -51.51177,8.56932 -2.51213,1.22019 -3.75482,2.03462 -5.21431,3.41735 l -1.91614,1.81537 0.4031,1.11476 c 0.595,1.64542 2.56591,4.82084 4.03351,6.49853 4.60222,5.26102 13.84769,10.11514 24.83252,13.03773 4.56133,1.21358 8.16192,1.91698 14.92337,2.91537 14.26151,2.10584 23.91128,4.99997 30.06454,9.01687 2.28878,1.49413 4.77948,3.87696 5.4965,5.25846 0.3962,0.76336 0.37232,0.93612 -0.32695,2.36537 -3.10883,6.35424 -15.09064,9.09045 -36.09942,8.24381 l 0,0 z"
           id="path4166"
           inkscape:connector-curvature="0" />
        <path
           style="fill:#ffff00;fill-opacity:1;stroke:#000000;stroke-width:0;stroke-miterlimit:4;stroke-opacity:1;stroke-dasharray:none"
           d="m 542.34253,540.58851 c 0.43841,-0.0664 1.1558,-0.0664 1.5942,0 0.43841,0.0664 0.0797,0.12075 -0.7971,0.12075 -0.87681,0 -1.23551,-0.0543 -0.7971,-0.12075 z"
           id="path5232"
           inkscape:connector-curvature="0" />
        <path
           style="fill:#ffff00;fill-opacity:1;stroke:none"
           d="m 540.28986,539.02884 c 2.89855,3.47827 3.1884,3.18841 3.1884,3.18841 l 7.82609,-2.02899 9.56522,2.02899"
           id="path5455"
           inkscape:connector-curvature="0" />
        <path
           style="fill:#0909c6;fill-opacity:1;stroke:none"
           d="m 537.10876,533.02811 -3.01057,-1.64697 1.72787,-1.49566 1.72786,-1.49565 1.66242,2.92688 c 0.91435,1.60977 1.66242,3.03558 1.66242,3.16845 0,0.47617 -0.80461,0.16524 -3.77,-1.45705 z"
           id="path5796"
           inkscape:connector-curvature="0" />
        <path
           style="fill:#ffff00;stroke:none"
           d="m 553.33333,523.08682 c 0,0 -5.50724,1.73913 11.0145,9.85507"
           id="path5938"
           inkscape:connector-curvature="0" />
        <path
           style="fill:#0909c6;fill-opacity:1;stroke:none"
           d="m 538.98824,532.7569 c -1.62767,-2.14672 -1.80162,-2.7582 -1.01888,-3.58139 1.16206,-1.22208 1.02893,-1.34961 2.88757,2.76646 1.82274,4.03653 0.8843,4.44577 -1.86869,0.81493 l 0,0 z"
           id="path6148"
           inkscape:connector-curvature="0" />
        <path
           style="fill:#0909c6;fill-opacity:1;stroke:none"
           d="m 548.60364,520.76081 c -2.23461,-4.16009 -3.10562,-8.28555 -1.93569,-9.16782 l 2.12792,-1.60286 4.40669,11.25035 c 4.74882,12.1238 2.01837,11.8394 -4.59851,-0.47904 z"
           id="path6150"
           inkscape:connector-curvature="0" />
        <path
           style="fill:#0909c6;fill-opacity:1;stroke:none"
           d="m 537.74479,658.89384 c -4.64325,-0.42502 -8.90472,-0.9162 -9.46994,-1.09153 -5.11166,-1.58563 -23.99067,-9.20515 -23.37919,-9.43578 0.20908,-0.0789 41.1207,10.67375 42.44606,11.15591 0.69289,0.25205 -1.65816,0.0981 -9.59693,-0.6286 z"
           id="path6396"
           inkscape:connector-curvature="0" />
      </g>
      <rect
         y="600.18829"
         x="442.89856"
         height="13.04348"
         width="9.855072"
         id="rect6483"
         style="fill:#f5f508;fill-opacity:1;stroke:none" />
    </g>
  </g>
</svg>
